<svg width="1080" height="1350" viewBox="0 0 1080 1350" fill="none" xmlns="http://www.w3.org/2000/svg">
<path d="M210.999 769.709C223.276 770.846 244.587 776.995 253.526 785.839C268.793 800.938 260.138 830.903 296.958 825.186C314.679 822.438 348.445 795.6 371.104 788.166C380.096 785.218 419.506 775.836 424.402 784.028C433.847 799.801 406.292 795.915 399.49 796.831C390.825 798 380.57 800.748 372.336 803.749C339.422 815.731 294.674 861.059 261.212 830.682C245.608 816.521 253.494 799.169 231.594 790.367C198.964 777.247 106.867 789.608 65.6772 785.944C59.9389 785.439 53.9373 784.997 54.0005 777.89L54.4638 519.896L57.6857 515.937C97.6539 516.432 138.917 512.231 178.801 514.979C208.483 517.022 235.005 528.467 257.622 547.398C317.511 495.785 390.277 495.985 442.333 558.075C449.314 566.403 464.612 588.251 443.944 590.367C432.941 591.494 430.446 580.67 424.402 574.216C375.705 522.223 328.925 522.16 273.121 565.55C275.269 576.353 281.67 586.198 284.534 597.538C293.389 632.662 289.409 669.967 273.152 702.207C328.493 766.287 428.277 732.562 441.417 651.351H337.421L337.4 660.322L330.251 654.952L335.621 656.732V620.859H332.031L337.4 617.279V626.24H460.232C464.339 626.24 470.14 634.705 469.993 639.485C469.793 645.992 463.633 664.944 461.159 672.009C429.087 763.37 326.787 790.335 257.611 721.328C213.358 765.486 146.94 753.736 89.9572 755.379V529.404H68.4464V769.719H210.999V769.709ZM113.279 735.637H180.518C216.253 735.637 252.715 703.302 261.223 669.293C281.123 589.725 240.786 537.417 160.776 532.994C150.678 532.436 126.63 531.352 117.764 532.973C115.753 533.342 114.406 533.889 113.279 535.658V735.626V735.637Z" fill="#F7B227"/>
<path d="M319.48 628.04C319.585 635.631 319.438 641.265 319.101 647.856L299.77 637.874L319.48 628.04Z" fill="#F7B227"/>
<path d="M224.445 636.99H147.341V644.16H224.445V636.99Z" fill="#F7B227"/>
<path d="M224.445 667.482L223.656 672.968L151.826 674.663C147.373 673.863 146.857 671.799 147.341 667.493H224.445V667.482Z" fill="#F7B227"/>
<path d="M224.445 613.678H147.341L148.13 608.193L219.96 606.498C224.413 607.298 224.929 609.361 224.445 613.668V613.678Z" fill="#F7B227"/>
<path d="M562.923 536.564C570.704 540.523 576.663 546.187 580.812 553.547C584.96 560.907 587.034 569.572 587.034 579.543C587.034 589.514 584.96 598.159 580.812 605.466C576.663 612.784 570.704 618.375 562.923 622.239C555.142 626.103 545.939 628.04 535.316 628.04H504.981V530.625H535.316C545.939 530.625 555.142 532.605 562.923 536.564ZM564.113 607.572C570.725 600.907 574.031 591.568 574.031 579.543C574.031 567.519 570.693 557.969 564.039 551.168C557.374 544.366 547.803 540.965 535.316 540.965H517.701V617.553H535.316C547.898 617.553 557.49 614.226 564.113 607.561V607.572Z" fill="#F7B227"/>
<path d="M603.807 568.856C606.976 562.939 611.335 558.349 616.874 555.084C622.412 551.82 628.592 550.188 635.394 550.188C642.196 550.188 647.924 551.631 652.862 554.516C657.8 557.401 661.475 561.044 663.907 565.413V551.431H676.763V628.019H663.907V613.763C661.39 618.238 657.642 621.944 652.651 624.871C647.661 627.809 641.87 629.272 635.247 629.272C628.624 629.272 622.296 627.598 616.8 624.239C611.304 620.881 606.966 616.185 603.796 610.12C600.627 604.066 599.048 597.169 599.048 589.441C599.048 581.712 600.627 574.742 603.796 568.825L603.807 568.856ZM660.411 574.511C658.084 570.225 654.936 566.94 650.977 564.655C647.018 562.371 642.659 561.233 637.911 561.233C633.162 561.233 628.824 562.35 624.918 564.592C621.001 566.824 617.884 570.088 615.557 574.374C613.231 578.659 612.062 583.692 612.062 589.472C612.062 595.253 613.231 600.444 615.557 604.771C617.884 609.099 621.011 612.415 624.918 614.7C628.835 616.985 633.162 618.122 637.911 618.122C642.659 618.122 647.018 616.985 650.977 614.7C654.936 612.415 658.084 609.109 660.411 604.771C662.738 600.444 663.907 595.39 663.907 589.609C663.907 583.829 662.738 578.806 660.411 574.511Z" fill="#F7B227"/>
<path d="M758.247 558.517C764.028 564.15 766.913 572.278 766.913 582.902V628.051H754.33V584.724C754.33 577.08 752.425 571.236 748.603 567.182C744.781 563.129 739.569 561.096 732.946 561.096C726.323 561.096 720.901 563.192 716.942 567.382C712.983 571.573 711.003 577.68 711.003 585.692V628.04H698.284V551.452H711.003V562.349C713.52 558.433 716.942 555.411 721.28 553.263C725.607 551.125 730.387 550.052 735.61 550.052C744.928 550.052 752.477 552.873 758.247 558.506V558.517Z" fill="#F7B227"/>
<path d="M788.149 536.501C786.475 534.827 785.633 532.774 785.633 530.352C785.633 527.93 786.475 525.877 788.149 524.203C789.823 522.529 791.877 521.687 794.298 521.687C796.72 521.687 798.605 522.529 800.237 524.203C801.869 525.877 802.679 527.93 802.679 530.352C802.679 532.774 801.858 534.827 800.237 536.501C798.605 538.175 796.625 539.017 794.298 539.017C791.971 539.017 789.823 538.175 788.149 536.501ZM800.447 551.452V628.04H787.728V551.452H800.447Z" fill="#F7B227"/>
<path d="M578.79 672.799C576.084 667.114 572.178 662.712 567.05 659.596C561.922 656.479 555.963 654.91 549.161 654.91C542.359 654.91 536.231 656.469 530.777 659.596C525.323 662.723 521.038 667.187 517.921 673.01C514.794 678.832 513.236 685.571 513.236 693.205C513.236 700.838 514.794 707.556 517.921 713.326C521.038 719.106 525.334 723.549 530.777 726.676C536.231 729.804 542.359 731.362 549.161 731.362C558.669 731.362 566.492 728.519 572.641 722.833C578.79 717.148 582.38 709.461 583.402 699.775H544.549V689.435H596.963V699.217C596.215 707.229 593.699 714.568 589.414 721.233C585.128 727.898 579.495 733.162 572.504 737.027C565.513 740.891 557.732 742.828 549.161 742.828C540.127 742.828 531.872 740.712 524.418 736.468C516.963 732.225 511.067 726.34 506.74 718.79C502.412 711.241 500.243 702.712 500.243 693.215C500.243 683.718 502.412 675.158 506.74 667.566C511.067 659.975 516.963 654.058 524.418 649.814C531.872 645.571 540.117 643.455 549.161 643.455C559.501 643.455 568.661 646.024 576.621 651.141C584.591 656.269 590.393 663.492 594.025 672.799H578.79Z" fill="#F7B227"/>
<path d="M681.658 665.387V741.975H668.939V730.656C666.518 734.573 663.138 737.627 658.81 739.806C654.483 741.996 649.703 743.091 644.48 743.091C638.521 743.091 633.162 741.859 628.402 739.385C623.654 736.921 619.895 733.215 617.147 728.277C614.399 723.339 613.02 717.327 613.02 710.251V665.387H625.602V708.577C625.602 716.126 627.508 721.928 631.33 725.981C635.152 730.035 640.363 732.057 646.986 732.057C653.609 732.057 659.147 729.961 663.064 725.771C666.981 721.58 668.939 715.473 668.939 707.461V665.387H681.658Z" fill="#F7B227"/>
<path d="M772.641 708.44H711.425C711.888 715.989 714.478 721.886 719.185 726.118C723.891 730.362 729.598 732.478 736.305 732.478C741.801 732.478 746.392 731.204 750.077 728.635C753.762 726.076 756.342 722.654 757.837 718.358H771.535C769.482 725.718 765.386 731.709 759.237 736.321C753.088 740.933 745.444 743.239 736.315 743.239C729.05 743.239 722.543 741.607 716.816 738.343C711.088 735.079 706.592 730.446 703.328 724.434C700.064 718.422 698.442 711.462 698.442 703.544C698.442 695.626 700.022 688.688 703.191 682.718C706.36 676.758 710.803 672.167 716.542 668.946C722.27 665.734 728.861 664.123 736.315 664.123C743.77 664.123 750.014 665.713 755.605 668.872C761.196 672.041 765.502 676.4 768.534 681.938C771.556 687.487 773.072 693.752 773.072 700.733C773.072 703.154 772.935 705.713 772.651 708.419L772.641 708.44ZM756.71 685.582C754.562 682.086 751.656 679.433 747.971 677.611C744.286 675.789 740.211 674.884 735.747 674.884C729.314 674.884 723.838 676.937 719.322 681.033C714.805 685.129 712.214 690.814 711.562 698.079H759.922C759.922 693.236 758.848 689.067 756.71 685.571V685.582Z" fill="#F7B227"/>
<path d="M789.834 682.791C793.003 676.874 797.362 672.283 802.9 669.019C808.438 665.755 814.661 664.123 821.558 664.123C827.517 664.123 833.066 665.503 838.194 668.251C843.321 670.999 847.227 674.61 849.933 679.085V638.548H862.789V741.975H849.933V727.582C847.417 732.152 843.69 735.9 838.752 738.838C833.813 741.775 828.033 743.239 821.421 743.239C814.808 743.239 808.449 741.565 802.9 738.206C797.351 734.847 793.003 730.151 789.834 724.086C786.664 718.032 785.085 711.136 785.085 703.407C785.085 695.679 786.664 688.709 789.834 682.791ZM846.438 688.446C844.111 684.16 840.963 680.875 837.004 678.59C833.045 676.306 828.686 675.168 823.937 675.168C819.189 675.168 814.851 676.284 810.944 678.527C807.028 680.759 803.911 684.023 801.584 688.309C799.257 692.594 798.088 697.627 798.088 703.407C798.088 709.188 799.257 714.379 801.584 718.706C803.911 723.033 807.038 726.35 810.944 728.635C814.861 730.92 819.189 732.057 823.937 732.057C828.686 732.057 833.045 730.92 837.004 728.635C840.963 726.35 844.111 723.044 846.438 718.706C848.765 714.379 849.933 709.325 849.933 703.544C849.933 697.764 848.765 692.741 846.438 688.446Z" fill="#F7B227"/>
<path d="M953.771 708.44H892.555C893.019 715.989 895.609 721.886 900.315 726.118C905.022 730.362 910.728 732.478 917.435 732.478C922.932 732.478 927.522 731.204 931.207 728.635C934.882 726.076 937.472 722.654 938.967 718.358H952.666C950.613 725.718 946.517 731.709 940.368 736.321C934.219 740.933 926.575 743.239 917.446 743.239C910.181 743.239 903.674 741.607 897.946 738.343C892.218 735.079 887.722 730.446 884.458 724.434C881.194 718.422 879.562 711.462 879.562 703.544C879.562 695.626 881.142 688.688 884.311 682.718C887.48 676.758 891.924 672.167 897.662 668.946C903.4 665.724 909.981 664.123 917.435 664.123C924.89 664.123 931.134 665.713 936.725 668.872C942.316 672.041 946.622 676.4 949.654 681.938C952.676 687.487 954.192 693.752 954.192 700.733C954.192 703.154 954.056 705.713 953.771 708.419V708.44ZM937.841 685.582C935.693 682.086 932.787 679.433 929.102 677.611C925.417 675.789 921.342 674.884 916.867 674.884C910.434 674.884 904.959 676.937 900.442 681.033C895.925 685.129 893.334 690.814 892.682 698.079H941.042C941.042 693.236 939.968 689.067 937.83 685.571L937.841 685.582Z" fill="#F7B227"/>
<path d="M982.284 740.227C977.62 738.227 973.945 735.426 971.239 731.846C968.534 728.256 967.049 724.139 966.765 719.475H979.905C980.273 723.297 982.074 726.413 985.285 728.835C988.497 731.257 992.719 732.468 997.931 732.468C1002.77 732.468 1006.6 731.394 1009.39 729.256C1012.18 727.119 1013.58 724.413 1013.58 721.149C1013.58 717.885 1012.08 715.305 1009.1 713.673C1006.12 712.041 1001.51 710.441 995.267 708.851C989.581 707.366 984.948 705.85 981.358 704.313C977.767 702.776 974.693 700.491 972.134 697.469C969.576 694.447 968.291 690.457 968.291 685.519C968.291 681.602 969.46 678.022 971.787 674.758C974.114 671.494 977.42 668.914 981.705 666.998C985.991 665.092 990.887 664.134 996.383 664.134C1004.86 664.134 1011.71 666.282 1016.92 670.567C1022.15 674.853 1024.94 680.728 1025.31 688.182H1012.59C1012.31 684.181 1010.7 680.959 1007.76 678.538C1004.83 676.116 1000.89 674.905 995.951 674.905C991.382 674.905 987.749 675.884 985.054 677.843C982.348 679.801 981 682.36 981 685.529C981 688.045 981.811 690.12 983.443 691.752C985.075 693.384 987.117 694.689 989.592 695.669C992.055 696.648 995.488 697.743 999.868 698.954C1005.36 700.449 1009.84 701.912 1013.28 703.355C1016.72 704.797 1019.68 706.966 1022.16 709.851C1024.62 712.736 1025.91 716.516 1026 721.17C1026 725.36 1024.83 729.14 1022.51 732.489C1020.18 735.847 1016.89 738.48 1012.65 740.385C1008.41 742.291 1003.54 743.249 998.046 743.249C992.171 743.249 986.907 742.249 982.253 740.249L982.284 740.227Z" fill="#F7B227"/>
<path d="M525.987 795.126C530.124 796.2 532.515 799.095 532.515 803.581V810.214C532.515 811.92 532.746 813.33 533.083 814.299H530.419C529.914 813.225 529.514 811.972 529.514 810.214V803.633C529.514 798.074 525.829 796.2 520.722 796.2H506.771V814.289H503.76V773.899H521.112C528.882 773.899 533.083 778.1 533.083 784.955C533.083 790.177 530.64 793.746 525.997 795.105L525.987 795.126ZM520.943 776.3H506.761V793.831H520.943C527.524 793.831 530.072 790.198 530.072 785.092C530.072 779.985 527.524 776.3 520.943 776.3Z" fill="#F7B227"/>
<path d="M584.634 814.299V773.91H611.241V776.405H587.645V792.515H609.43V794.894H587.645V811.793H611.241V814.289H584.634V814.299Z" fill="#F7B227"/>
<path d="M676.804 814.299H662.169V773.91H676.804C689.681 773.91 695.462 781.733 695.462 794.104C695.462 806.476 689.681 814.299 676.804 814.299ZM676.92 776.352H665.18V811.856H676.92C687.302 811.856 692.461 805.728 692.461 794.104C692.461 782.48 687.302 776.352 676.92 776.352Z" fill="#F7B227"/>
<path d="M774.136 814.299L769.545 802.896H748.897L744.307 814.299H741.127L757.405 773.91H761.037L777.315 814.299H774.136ZM759.216 777.037L749.74 800.464H768.629L759.216 777.037Z" fill="#F7B227"/>
<path d="M840.321 823.659L836.92 823.428V821.901H840.268C842.932 821.901 843.901 821.448 843.901 820.09C843.901 818.732 842.932 818.216 840.268 818.216H838.625V817.079L840.5 814.815C828.697 814.362 822.969 806.076 822.969 794.115C822.969 782.154 829.033 773.352 841.574 773.352C852.408 773.352 858.704 779.932 858.704 787.534H856.04C855.251 780.901 850.428 775.847 841.574 775.847C831.36 775.847 825.98 782.48 825.98 794.115C825.98 805.749 831.371 812.383 841.574 812.383C850.313 812.383 855.24 807.56 856.04 800.359H858.704C858.704 808.013 852.861 814.657 842.142 814.878L840.331 817.089C844.416 817.089 846.227 817.942 846.227 820.153C846.227 822.48 844.353 823.67 840.331 823.67L840.321 823.659Z" fill="#F7B227"/>
<path d="M939.01 814.299L934.419 802.896H913.771L909.181 814.299H906.001L922.279 773.91H925.911L942.189 814.299H939.01ZM924.1 777.037L914.624 800.464H933.513L924.1 777.037ZM920.857 764.844C919.383 764.844 918.594 766.318 918.594 768.529H916.783C916.783 764.676 918.204 762.802 920.752 762.802C923.869 762.802 925.227 766.434 927.333 766.434C928.807 766.434 929.597 764.96 929.597 762.802H931.408C931.408 766.655 929.986 768.529 927.385 768.529C924.322 768.529 922.963 764.844 920.857 764.844Z" fill="#F7B227"/>
<path d="M987.843 794.104C987.843 781.796 993.908 773.341 1006.45 773.341C1018.99 773.341 1025.11 781.796 1025.11 794.104C1025.11 806.413 1019.04 814.868 1006.45 814.868C993.855 814.868 987.843 806.413 987.843 794.104ZM1022.1 794.104C1022.1 782.48 1016.71 775.836 1006.45 775.836C996.182 775.836 990.854 782.47 990.854 794.104C990.854 805.739 996.245 812.372 1006.45 812.372C1016.65 812.372 1022.1 805.739 1022.1 794.104Z" fill="#F7B227"/>
</svg>
