<svg width="1080" height="1350" viewBox="0 0 1080 1350" fill="none" xmlns="http://www.w3.org/2000/svg">
<path d="M155.976 725.226C162.467 725.824 173.729 729.08 178.448 733.747C186.516 741.722 181.941 757.559 201.395 754.54C210.761 753.087 228.597 738.909 240.569 734.973C245.319 733.417 266.143 728.461 268.73 732.789C273.717 741.125 259.157 739.064 255.561 739.558C250.987 740.177 245.567 741.63 241.219 743.216C223.826 749.553 200.179 773.499 182.498 757.446C174.255 749.965 178.418 740.795 166.846 736.138C149.608 729.203 100.944 735.736 79.1723 733.799C76.143 733.531 72.9693 733.294 73.0002 729.543L73.2476 593.225L74.9476 591.134C96.0702 591.391 117.873 589.176 138.944 590.629C154.626 591.711 168.65 597.759 180.592 607.764C212.234 580.49 250.688 580.593 278.188 613.4C281.877 617.8 289.955 629.34 279.033 630.463C273.222 631.06 271.903 625.342 268.709 621.931C242.981 594.451 218.252 594.42 188.773 617.357C189.906 623.065 193.296 628.268 194.8 634.255C199.478 652.812 197.376 672.523 188.783 689.565C218.025 723.423 270.749 705.608 277.694 662.693H222.744V667.433L218.952 664.599L221.796 665.537V646.588H219.9L222.744 644.703V649.432H287.647C289.821 649.432 292.881 653.904 292.809 656.428C292.706 659.859 289.45 669.885 288.142 673.615C271.192 721.888 217.139 736.138 180.592 699.673C157.212 723 122.118 716.798 92.0003 717.663V598.264H80.6353V725.247H155.955L155.976 725.226ZM104.334 707.215H139.861C158.748 707.215 178.005 690.132 182.508 672.162C193.028 630.112 171.71 602.478 129.434 600.149C124.096 599.85 111.392 599.284 106.704 600.149C105.642 600.345 104.931 600.634 104.334 601.571V707.236V707.215Z" fill="#F7B227"/>
<path d="M213.296 650.37C213.347 654.378 213.275 657.356 213.1 660.838L202.879 655.563L213.296 650.359V650.37Z" fill="#F7B227"/>
<path d="M163.086 655.099H122.345V658.891H163.086V655.099Z" fill="#F7B227"/>
<path d="M163.086 671.204L162.663 674.099L124.715 674.995C122.366 674.573 122.087 673.481 122.345 671.204H163.086Z" fill="#F7B227"/>
<path d="M163.086 642.776H122.345L122.767 639.881L160.716 638.984C163.065 639.407 163.343 640.499 163.086 642.776Z" fill="#F7B227"/>
<path d="M322.967 710.996C325.574 711.656 327.006 713.469 327.006 716.21V720.208C327.006 721.248 327.14 722.124 327.357 722.711H324.575C324.266 722.052 324.018 721.29 324.018 720.208V716.282C324.018 713.016 321.937 712.078 319.083 712.078H311.674V722.722H308.687V697.962H319.711C324.647 697.962 327.357 700.61 327.357 704.845C327.357 708.049 325.863 710.161 322.978 710.996H322.967ZM319.392 700.249H311.674V709.78H319.392C322.936 709.78 324.369 707.833 324.369 705.02C324.369 702.207 322.947 700.26 319.392 700.26V700.249Z" fill="#F7B227"/>
<path d="M358.723 722.712V697.952H375.724V700.425H361.711V708.915H374.611V711.275H361.711V720.249H375.724V722.722H358.723V722.712Z" fill="#F7B227"/>
<path d="M416.102 722.712H406.746V697.952H416.102C424.067 697.952 427.858 702.682 427.858 710.337C427.858 717.993 424.067 722.722 416.102 722.722V722.712ZM416.205 700.353H409.734V720.311H416.205C421.975 720.311 424.86 716.901 424.86 710.327C424.86 703.753 421.975 700.343 416.205 700.343V700.353Z" fill="#F7B227"/>
<path d="M475.576 722.712L473.103 716.447H461.212L458.74 722.712H455.648L465.354 697.952H468.971L478.677 722.712H475.586H475.576ZM467.158 700.806L461.975 714.129H472.299L467.147 700.806H467.158Z" fill="#F7B227"/>
<path d="M517.306 728.729L515.08 728.523V727.307H517.275C518.738 727.307 519.325 727.029 519.325 726.225C519.325 725.422 518.738 725.185 517.275 725.185H516.296V724.35L517.409 723.031C510.176 722.722 506.456 717.642 506.456 710.337C506.456 703.032 510.454 697.612 518.213 697.612C524.92 697.612 529.062 701.651 529.062 706.586H526.311C525.858 702.867 523.179 700.085 518.213 700.085C512.443 700.085 509.444 703.804 509.444 710.347C509.444 716.89 512.432 720.61 518.213 720.61C523.117 720.61 525.858 717.962 526.311 713.902H529.062C529.062 718.837 525.24 722.877 518.666 723.083L517.584 724.371C520.016 724.371 521.335 724.927 521.335 726.349C521.335 727.946 520.119 728.75 517.296 728.75L517.306 728.729Z" fill="#F7B227"/>
<path d="M577.717 722.712L575.244 716.447H563.353L560.88 722.712H557.789L567.495 697.952H571.112L580.818 722.712H577.727H577.717ZM569.298 700.806L564.116 714.129H574.44L569.288 700.806H569.298ZM567.32 692.841C566.454 692.841 565.96 693.676 565.96 694.995H564.394C564.394 692.285 565.373 690.997 567.176 690.997C569.154 690.997 570.061 693.12 571.277 693.12C572.142 693.12 572.637 692.316 572.637 690.997H574.203C574.203 693.707 573.224 694.995 571.39 694.995C569.443 694.995 568.536 692.841 567.32 692.841Z" fill="#F7B227"/>
<path d="M608.608 710.337C608.608 702.795 612.606 697.612 620.365 697.612C628.124 697.612 632.152 702.795 632.152 710.337C632.152 717.879 628.155 723.062 620.365 723.062C612.575 723.062 608.608 717.879 608.608 710.337ZM629.154 710.337C629.154 703.794 626.166 700.074 620.355 700.074C614.543 700.074 611.586 703.794 611.586 710.337C611.586 716.88 614.574 720.599 620.355 720.599C626.135 720.599 629.154 716.88 629.154 710.337Z" fill="#F7B227"/>
<path d="M351.531 603.024C357.322 605.971 361.763 610.185 364.854 615.666C367.945 621.148 369.48 627.598 369.48 635.017C369.48 642.436 367.935 648.875 364.854 654.316C361.763 659.766 357.322 663.929 351.531 666.804C345.74 669.679 338.888 671.121 330.985 671.121H308.41V598.593H330.985C338.888 598.593 345.74 600.067 351.531 603.014V603.024ZM352.417 655.882C357.342 650.926 359.805 643.971 359.805 635.017C359.805 626.063 357.322 618.964 352.366 613.894C347.41 608.835 340.279 606.3 330.985 606.3H317.879V663.321H330.985C340.352 663.321 347.492 660.838 352.417 655.882Z" fill="#F7B227"/>
<path d="M386.645 627.063C389.005 622.663 392.251 619.242 396.372 616.811C400.494 614.379 405.099 613.173 410.159 613.173C415.218 613.173 419.483 614.245 423.162 616.398C426.84 618.552 429.581 621.251 431.384 624.518V614.111H440.956V671.132H431.384V660.519C429.509 663.847 426.717 666.608 423.007 668.793C419.298 670.977 414.981 672.069 410.056 672.069C405.13 672.069 400.411 670.823 396.321 668.319C392.23 665.825 389.005 662.322 386.645 657.809C384.286 653.296 383.111 648.165 383.111 642.405C383.111 636.645 384.286 631.462 386.645 627.052V627.063ZM428.788 631.277C427.057 628.083 424.707 625.641 421.761 623.941C418.814 622.241 415.568 621.396 412.034 621.396C408.5 621.396 405.275 622.23 402.359 623.889C399.443 625.558 397.124 627.98 395.383 631.174C393.652 634.368 392.787 638.108 392.787 642.415C392.787 646.722 393.652 650.586 395.383 653.811C397.114 657.036 399.443 659.499 402.359 661.199C405.275 662.899 408.5 663.744 412.034 663.744C415.568 663.744 418.814 662.899 421.761 661.199C424.707 659.499 427.046 657.036 428.788 653.811C430.519 650.586 431.384 646.825 431.384 642.518C431.384 638.211 430.519 634.471 428.788 631.277Z" fill="#F7B227"/>
<path d="M506.312 619.356C510.609 623.549 512.762 629.608 512.762 637.511V671.121H503.396V638.86C503.396 633.173 501.975 628.814 499.131 625.806C496.287 622.787 492.402 621.282 487.477 621.282C482.552 621.282 478.513 622.838 475.566 625.96C472.619 629.082 471.146 633.626 471.146 639.592V671.121H461.677V614.101H471.146V622.22C473.021 619.304 475.566 617.058 478.791 615.461C482.016 613.864 485.571 613.07 489.456 613.07C496.39 613.07 502.005 615.172 506.312 619.366V619.356Z" fill="#F7B227"/>
<path d="M533.258 602.973C532.011 601.726 531.383 600.201 531.383 598.398C531.383 596.595 532.011 595.07 533.258 593.823C534.505 592.576 536.03 591.948 537.833 591.948C539.636 591.948 541.037 592.576 542.253 593.823C543.469 595.07 544.077 596.595 544.077 598.398C544.077 600.201 543.469 601.726 542.253 602.973C541.037 604.219 539.564 604.848 537.833 604.848C536.102 604.848 534.505 604.219 533.258 602.973ZM542.418 614.101V671.121H532.949V614.101H542.418Z" fill="#F7B227"/>
<path d="M650.637 619.623C648.627 615.388 645.711 612.112 641.899 609.794C638.087 607.475 633.646 606.311 628.576 606.311C623.507 606.311 618.953 607.475 614.893 609.794C610.833 612.122 607.639 615.45 605.321 619.778C602.992 624.116 601.838 629.123 601.838 634.811C601.838 640.499 603.002 645.496 605.321 649.793C607.639 654.089 610.833 657.407 614.893 659.725C618.953 662.054 623.507 663.208 628.576 663.208C635.655 663.208 641.477 661.096 646.062 656.861C650.637 652.626 653.305 646.907 654.078 639.695H625.155V631.998H664.176V639.283C663.619 645.249 661.744 650.71 658.56 655.676C655.366 660.632 651.172 664.558 645.969 667.432C640.766 670.307 634.975 671.75 628.587 671.75C621.858 671.75 615.717 670.173 610.174 667.02C604.62 663.867 600.241 659.478 597.006 653.852C593.781 648.237 592.163 641.89 592.163 634.811C592.163 627.732 593.781 621.375 597.006 615.718C600.231 610.061 604.62 605.662 610.174 602.498C615.717 599.346 621.858 597.759 628.587 597.759C636.284 597.759 643.105 599.665 649.029 603.477C654.964 607.29 659.281 612.668 661.981 619.603H650.637V619.623Z" fill="#F7B227"/>
<path d="M731.902 614.101V671.121H722.433V662.693C720.63 665.609 718.116 667.876 714.891 669.504C711.666 671.132 708.111 671.946 704.227 671.946C699.786 671.946 695.798 671.029 692.264 669.184C688.73 667.35 685.937 664.589 683.887 660.91C681.836 657.232 680.816 652.76 680.816 647.485V614.08H690.183V646.238C690.183 651.853 691.604 656.171 694.448 659.19C697.292 662.209 701.177 663.713 706.102 663.713C711.027 663.713 715.159 662.157 718.064 659.035C720.98 655.913 722.433 651.369 722.433 645.403V614.08H731.902V614.101Z" fill="#F7B227"/>
<path d="M804.316 646.155H758.743C759.093 651.771 761.01 656.16 764.513 659.313C768.016 662.466 772.262 664.042 777.259 664.042C781.349 664.042 784.77 663.094 787.511 661.178C790.252 659.272 792.179 656.716 793.281 653.533H803.482C801.957 659.014 798.907 663.476 794.322 666.907C789.747 670.338 784.059 672.059 777.259 672.059C771.849 672.059 767.007 670.843 762.741 668.421C758.475 665.99 755.127 662.538 752.695 658.066C750.263 653.594 749.058 648.412 749.058 642.508C749.058 636.604 750.232 631.441 752.592 627C754.951 622.56 758.259 619.149 762.525 616.748C766.79 614.348 771.695 613.163 777.249 613.163C782.802 613.163 787.449 614.348 791.612 616.697C795.775 619.056 798.979 622.302 801.236 626.423C803.492 630.555 804.615 635.213 804.615 640.416C804.615 642.219 804.512 644.125 804.306 646.134L804.316 646.155ZM792.457 629.144C790.86 626.547 788.696 624.569 785.955 623.209C783.214 621.859 780.175 621.179 776.847 621.179C772.056 621.179 767.986 622.704 764.616 625.754C761.247 628.804 759.331 633.038 758.836 638.448H794.837C794.837 634.842 794.044 631.74 792.447 629.133L792.457 629.144Z" fill="#F7B227"/>
<path d="M821.803 627.062C824.162 622.663 827.408 619.242 831.529 616.81C835.651 614.379 840.288 613.173 845.419 613.173C849.86 613.173 853.981 614.193 857.804 616.244C861.616 618.294 864.532 620.973 866.541 624.311V594.132H876.114V671.131H866.541V660.416C864.666 663.816 861.894 666.608 858.216 668.792C854.538 670.977 850.241 672.069 845.316 672.069C840.391 672.069 835.651 670.822 831.529 668.319C827.398 665.825 824.162 662.322 821.803 657.809C819.443 653.296 818.269 648.164 818.269 642.405C818.269 636.645 819.443 631.462 821.803 627.052V627.062ZM863.945 631.277C862.214 628.083 859.865 625.641 856.918 623.94C853.971 622.24 850.725 621.395 847.191 621.395C843.657 621.395 840.432 622.23 837.516 623.889C834.6 625.558 832.282 627.98 830.54 631.174C828.809 634.368 827.944 638.108 827.944 642.415C827.944 646.722 828.809 650.586 830.54 653.811C832.271 657.036 834.6 659.499 837.516 661.199C840.432 662.899 843.657 663.744 847.191 663.744C850.725 663.744 853.971 662.899 856.918 661.199C859.865 659.499 862.204 657.036 863.945 653.811C865.676 650.586 866.541 646.825 866.541 642.518C866.541 638.211 865.676 634.471 863.945 631.277Z" fill="#F7B227"/>
<path d="M948.538 646.155H902.965C903.315 651.771 905.232 656.16 908.735 659.313C912.238 662.466 916.483 664.042 921.481 664.042C925.571 664.042 928.992 663.094 931.733 661.178C934.473 659.272 936.4 656.716 937.503 653.533H947.703C946.178 659.014 943.129 663.476 938.543 666.907C933.969 670.338 928.281 672.059 921.481 672.059C916.071 672.059 911.228 670.843 906.963 668.421C902.697 665.99 899.348 662.538 896.916 658.066C894.485 653.594 893.279 648.412 893.279 642.508C893.279 636.604 894.454 631.441 896.813 627C899.173 622.56 902.48 619.149 906.746 616.748C911.012 614.348 915.917 613.163 921.47 613.163C927.024 613.163 931.671 614.348 935.834 616.697C939.996 619.056 943.201 622.302 945.457 626.423C947.714 630.555 948.837 635.213 948.837 640.416C948.837 642.219 948.734 644.125 948.528 646.134L948.538 646.155ZM936.679 629.144C935.081 626.547 932.918 624.569 930.177 623.209C927.436 621.859 924.396 621.179 921.068 621.179C916.277 621.179 912.207 622.704 908.838 625.754C905.469 628.804 903.552 633.038 903.058 638.448H939.059C939.059 634.842 938.265 631.74 936.668 629.133L936.679 629.144Z" fill="#F7B227"/>
<path d="M974.452 669.823C970.979 668.329 968.239 666.248 966.229 663.579C964.22 660.91 963.107 657.84 962.901 654.367H972.68C972.958 657.211 974.297 659.54 976.688 661.343C979.078 663.146 982.221 664.053 986.105 664.053C989.712 664.053 992.555 663.26 994.637 661.663C996.718 660.065 997.759 658.056 997.759 655.625C997.759 653.193 996.646 651.276 994.431 650.061C992.205 648.845 988.774 647.649 984.127 646.475C979.892 645.362 976.44 644.239 973.772 643.095C971.103 641.952 968.816 640.251 966.899 637.995C964.993 635.738 964.035 632.771 964.035 629.103C964.035 626.187 964.9 623.518 966.631 621.087C968.362 618.655 970.825 616.738 974.019 615.316C977.213 613.895 980.85 613.184 984.941 613.184C991.257 613.184 996.347 614.781 1000.24 617.975C1004.13 621.169 1006.21 625.538 1006.49 631.081H997.017C996.811 628.103 995.616 625.703 993.431 623.899C991.247 622.096 988.31 621.19 984.642 621.19C981.242 621.19 978.542 621.921 976.523 623.374C974.514 624.827 973.504 626.743 973.504 629.092C973.504 630.968 974.112 632.513 975.328 633.719C976.544 634.935 978.068 635.903 979.902 636.635C981.737 637.366 984.292 638.18 987.548 639.077C991.638 640.19 994.966 641.282 997.532 642.353C1000.1 643.425 1002.3 645.043 1004.14 647.196C1005.97 649.35 1006.93 652.152 1007 655.625C1007 658.747 1006.14 661.559 1004.4 664.053C1002.67 666.546 1000.22 668.514 997.068 669.936C993.916 671.358 990.289 672.069 986.198 672.069C981.829 672.069 977.904 671.327 974.442 669.833L974.452 669.823Z" fill="#F7B227"/>
<path d="M1000.71 715.201H643.507V716.231H1000.71V715.201Z" fill="#F7B227"/>
</svg>
