<svg width="1080" height="1350" viewBox="0 0 1080 1350" fill="none" xmlns="http://www.w3.org/2000/svg">
<path d="M428.491 881.21C455.351 883.69 501.981 897.16 521.541 916.5C554.951 949.54 535.991 1015.09 616.551 1002.58C655.331 996.56 729.201 937.85 778.761 921.58C798.421 915.13 884.641 894.61 895.371 912.53C916.021 947.03 855.751 938.53 840.871 940.54C821.911 943.1 799.481 949.11 781.461 955.67C709.441 981.89 611.541 1081.04 538.341 1014.59C504.211 983.61 521.451 945.64 473.541 926.38C402.151 897.67 200.661 924.71 110.541 916.7C97.9913 915.58 84.8513 914.62 85.0013 899.08L86.0113 334.65L93.0513 325.99C180.501 327.06 270.771 317.89 358.021 323.89C422.961 328.35 480.991 353.4 530.461 394.82C661.471 281.9 820.691 282.34 934.571 418.17C949.841 436.39 983.301 484.19 938.091 488.82C914.011 491.29 908.561 467.6 895.341 453.49C788.791 339.73 686.451 339.59 564.371 434.54C569.071 458.18 583.081 479.7 589.341 504.51C608.721 581.36 600.011 662.97 564.431 733.52C685.501 873.71 903.821 799.93 932.561 622.26H705.031L704.991 641.88L689.351 630.14L701.111 634.03V555.56L693.261 555.53L705.011 547.73L705.031 567.33H973.751C982.741 567.33 995.431 585.86 995.101 596.3C994.661 610.53 981.191 652.01 975.771 667.45C905.601 867.33 681.791 926.31 530.461 775.35C433.641 871.95 288.341 846.25 163.671 849.84V355.45H116.601V881.21H428.471H428.491ZM214.701 806.66H361.811C440.001 806.66 519.761 735.91 538.371 661.52C581.911 487.43 493.661 373 318.621 363.34C296.521 362.12 243.911 359.75 224.511 363.3C220.121 364.1 217.171 365.29 214.701 369.18V806.66Z" fill="#F7B227"/>
<path d="M665.831 571.28C666.061 587.9 665.741 600.21 665.001 614.64L622.701 592.81L665.831 571.29V571.28Z" fill="#F7B227"/>
<path d="M457.912 590.86H289.231V606.55H457.912V590.86Z" fill="#F7B227"/>
<path d="M457.912 657.56L456.172 669.55L299.031 673.25C289.291 671.5 288.161 666.98 289.221 657.56H457.902H457.912Z" fill="#F7B227"/>
<path d="M457.912 539.85H289.231L290.971 527.86L448.112 524.16C457.852 525.91 458.982 530.43 457.922 539.85H457.912Z" fill="#F7B227"/>
</svg>
